<svg width="60" height="60" viewBox="0 0 60 60" fill="none" xmlns="http://www.w3.org/2000/svg">
<g clip-path="url(#clip0_748_17)">
<path d="M30 0C19.4572 0 10.6641 8.49258 10.6641 19.3359C10.6641 23.4612 11.9037 27.1397 14.2827 30.5866L28.5203 52.803C29.211 53.883 30.7904 53.8809 31.4797 52.803L45.7791 30.5111C48.1069 27.2203 49.3359 23.3563 49.3359 19.3359C49.3359 8.6741 40.6618 0 30 0ZM30 28.125C25.1539 28.125 21.2109 24.182 21.2109 19.3359C21.2109 14.4899 25.1539 10.5469 30 10.5469C34.8461 10.5469 38.7891 14.4899 38.7891 19.3359C38.7891 24.182 34.8461 28.125 30 28.125Z" fill="white"/>
<path d="M43.7419 40.3939L34.8906 54.2322C32.5995 57.8044 27.3878 57.7926 25.1077 54.2356L16.242 40.3976C8.44148 42.2011 3.63281 45.5049 3.63281 49.4531C3.63281 56.3041 17.2181 60 30 60C42.7819 60 56.3672 56.3041 56.3672 49.4531C56.3672 45.5021 51.5518 42.1965 43.7419 40.3939Z" fill="white"/>
</g>
<defs>
<clipPath id="clip0_748_17">
<rect width="60" height="60" fill="white"/>
</clipPath>
</defs>
</svg>
