<svg width="68" height="68" viewBox="0 0 68 68" fill="none" xmlns="http://www.w3.org/2000/svg">
<path d="M62.9531 17.2492V19.5751H58.2411V10.0858H59.7801V6.10144H44.1305V10.0858H45.6696V19.5751H40.2876V10.0858H41.8227V6.10144H26.1773V10.0858H27.7127V19.5751H22.3303V10.0858H23.8695V6.10144H8.21977V10.0858H9.7588V19.5751H5.04688V17.2492H1.0625V61.8986H66.9375V17.2492H62.9531ZM49.6539 10.0858H54.2567V19.5751H49.6539V10.0858ZM31.6968 10.0858H36.3032V19.5751H31.6968V10.0858ZM13.7432 10.0858H18.3459V19.5751H13.7432V10.0858ZM9.7588 23.5595V41.4375C9.7588 43.1046 10.421 44.7034 11.5999 45.8822C12.7787 47.061 14.3775 47.7233 16.0445 47.7233C17.7116 47.7233 19.3104 47.061 20.4892 45.8822C21.668 44.7034 22.3303 43.1046 22.3303 41.4375V23.5595H27.7124V41.4375C27.7124 43.1051 28.3748 44.7044 29.554 45.8835C30.7331 47.0627 32.3324 47.7251 34 47.7251C35.6676 47.7251 37.2669 47.0627 38.446 45.8835C39.6252 44.7044 40.2876 43.1051 40.2876 41.4375V23.5595H45.6696V41.4375C45.6696 43.1046 46.3318 44.7034 47.5106 45.8822C48.6894 47.061 50.2882 47.7233 51.9553 47.7233C53.6224 47.7233 55.2212 47.061 56.4 45.8822C57.5788 44.7034 58.2411 43.1046 58.2411 41.4375V23.5595H62.9531V50.9308H5.04688V23.5595H9.7588Z" fill="white"/>
</svg>
