<svg width="69" height="69" viewBox="0 0 69 69" fill="none" xmlns="http://www.w3.org/2000/svg">
<g clip-path="url(#clip0_751_50)">
<path d="M25.3602 33.6241C24.5314 32.7952 24.0759 31.6942 24.0746 30.5231C24.0746 29.3506 24.5314 28.2496 25.3602 27.4208C25.3643 27.4167 25.367 27.4127 25.371 27.41C27.0826 25.7106 29.8574 25.7133 31.5635 27.4208L33.0715 28.9275C33.4502 29.3062 33.965 29.5191 34.5014 29.5191C35.0364 29.5191 35.5512 29.3062 35.9299 28.9275L37.4366 27.4208C38.2641 26.592 39.3664 26.1365 40.5376 26.1365C41.71 26.1365 42.8111 26.592 43.6399 27.4208C44.4687 28.2496 44.9242 29.3506 44.9242 30.5231C44.9242 31.1093 44.8096 31.6767 44.5927 32.2023C44.3757 32.7279 44.0549 33.2103 43.6399 33.6241L34.5001 42.7639L25.3602 33.6241Z" fill="white"/>
<path d="M57.1528 8.82312H52.3268V11.0387C52.3268 12.7111 51.5762 14.3054 50.2663 15.4159C49.1302 16.3781 47.6599 16.9091 46.129 16.9091H22.8725C21.3415 16.9091 19.8712 16.3781 18.7352 15.4159C17.4252 14.3054 16.6746 12.7111 16.6746 11.0387V8.82312H11.8473C10.7301 8.82312 9.82581 9.72875 9.82581 10.8446V66.9785C9.82581 68.0944 10.7301 69 11.8473 69H57.1528C58.27 69 59.1743 68.0944 59.1743 66.9785V10.8446C59.1743 9.72875 58.27 8.82312 57.1528 8.82312ZM22.4857 24.5772L22.5019 24.5611C25.7888 21.2741 31.1363 21.2741 34.4232 24.5611L34.5 24.6392L34.5769 24.5624C36.1684 22.9708 38.2856 22.0935 40.5375 22.0935C42.7895 22.0935 44.9066 22.9695 46.4982 24.5624C48.0912 26.154 48.9671 28.2712 48.9671 30.5231C48.9671 32.7737 48.0912 34.8908 46.4982 36.4838L35.9299 47.0521C35.535 47.447 35.0175 47.6437 34.5 47.6437C33.9839 47.6437 33.4664 47.447 33.0715 47.0521L22.5019 36.4838C20.9089 34.8908 20.033 32.7737 20.0316 30.5231C20.0316 28.2779 20.9035 26.1675 22.4857 24.5772ZM19.9319 51.688H34.5486C35.6658 51.688 36.57 52.5923 36.57 53.7095C36.57 54.8254 35.6658 55.731 34.5486 55.731H19.9319C18.816 55.731 17.9104 54.8254 17.9104 53.7095C17.9104 52.5923 18.816 51.688 19.9319 51.688ZM49.0669 63.8156H19.9332C18.816 63.8156 17.9117 62.9113 17.9117 61.7941C17.9117 60.6782 18.816 59.7726 19.9332 59.7726H49.0669C50.1841 59.7726 51.0883 60.6782 51.0883 61.7941C51.0883 62.9113 50.1841 63.8156 49.0669 63.8156ZM49.0669 55.731H42.6345C41.5186 55.731 40.613 54.8254 40.613 53.7095C40.613 52.5923 41.5186 51.688 42.6345 51.688H49.0669C50.1841 51.688 51.0883 52.5923 51.0883 53.7095C51.0883 54.8254 50.1841 55.731 49.0669 55.731Z" fill="white"/>
<path d="M48.2838 6.4453V11.0393C48.2838 12.0483 47.3188 12.8662 46.1283 12.8662H22.873C21.6825 12.8662 20.7174 12.0483 20.7174 11.0393V6.4453C20.7174 5.43631 21.6825 4.61842 22.873 4.61842H26.736V1.82688C26.7362 0.817893 27.7012 0 28.8916 0H40.1082C41.2987 0 42.2637 0.817893 42.2637 1.82688V4.61842H46.1284C47.3188 4.61842 48.2838 5.43631 48.2838 6.4453Z" fill="white"/>
</g>
<defs>
<clipPath id="clip0_751_50">
<rect width="69" height="69" fill="white"/>
</clipPath>
</defs>
</svg>
