<svg width="30" height="30" viewBox="0 0 30 30" fill="none" xmlns="http://www.w3.org/2000/svg">
<g clip-path="url(#clip0_819_268)">
<path d="M12.2462 4.55537C12.2462 2.93994 13.5605 1.62568 15.1759 1.62568H16.1898L15.884 0.775488C15.712 0.297363 15.2614 0 14.7812 0C14.6481 0 14.5128 0.0228516 14.3805 0.0710156L4.13518 3.79998C3.52609 4.0217 3.21262 4.6957 3.43563 5.30432L3.97697 6.78193H12.2462V4.55537Z" fill="white"/>
<path d="M15.1758 3.38354C14.5286 3.38354 14.0039 3.90819 14.0039 4.55542V6.78198H24.2578V4.55542C24.2578 3.90819 23.7332 3.38354 23.0859 3.38354H15.1758Z" fill="white"/>
<path d="M27.3633 23.6863H23.2617C20.8386 23.6863 18.8672 21.7149 18.8672 19.2917C18.8672 16.8686 20.8386 14.8972 23.2617 14.8972H27.3633V10.8835C27.3633 9.58915 26.3139 8.53979 25.0195 8.53979H2.34375C1.04936 8.53979 0 9.58915 0 10.8835V27.6563C0 28.9507 1.04936 30 2.34375 30H25.0195C26.3139 30 27.3633 28.9507 27.3633 27.6563V23.6863Z" fill="white"/>
<path d="M29.1211 16.655H23.2617C21.8078 16.655 20.625 17.8379 20.625 19.2917C20.625 20.7456 21.8078 21.9285 23.2617 21.9285H29.1211C29.6057 21.9285 30 21.5342 30 21.0496V17.5339C30 17.0493 29.6057 16.655 29.1211 16.655ZM23.2617 20.1707C22.7763 20.1707 22.3828 19.7771 22.3828 19.2917C22.3828 18.8064 22.7763 18.4128 23.2617 18.4128C23.7471 18.4128 24.1406 18.8064 24.1406 19.2917C24.1406 19.7771 23.7471 20.1707 23.2617 20.1707Z" fill="white"/>
</g>
<defs>
<clipPath id="clip0_819_268">
<rect width="30" height="30" fill="white"/>
</clipPath>
</defs>
</svg>
