<svg width="35" height="34" viewBox="0 0 35 34" fill="none" xmlns="http://www.w3.org/2000/svg">
<path d="M7.97994 3.40002C6.86134 3.40002 5.93994 4.32142 5.93994 5.44002V28.56C5.93994 29.6786 6.86134 30.6 7.97994 30.6H27.0199C28.1385 30.6 29.0599 29.6786 29.0599 28.56V11.56H22.9399C21.8213 11.56 20.8999 10.6386 20.8999 9.52002V3.40002H7.97994ZM22.2599 3.79846V9.52002C22.2599 9.90363 22.5563 10.2 22.9399 10.2H28.6615L22.2599 3.79846ZM11.7199 10.2H17.8399C17.9292 10.2 18.0177 10.2176 18.1002 10.2518C18.1827 10.286 18.2576 10.336 18.3208 10.3992C18.3839 10.4623 18.434 10.5373 18.4682 10.6198C18.5024 10.7023 18.5199 10.7907 18.5199 10.88C18.5199 11.0604 18.4483 11.2333 18.3208 11.3609C18.1932 11.4884 18.0203 11.56 17.8399 11.56H11.7199C11.5396 11.56 11.3666 11.4884 11.2391 11.3609C11.1116 11.2333 11.0399 11.0604 11.0399 10.88C11.0399 10.7907 11.0575 10.7023 11.0917 10.6198C11.1259 10.5373 11.176 10.4623 11.2391 10.3992C11.3023 10.336 11.3772 10.286 11.4597 10.2518C11.5422 10.2176 11.6306 10.2 11.7199 10.2ZM11.7199 14.28H23.2799C23.4603 14.28 23.6332 14.3517 23.7608 14.4792C23.8883 14.6067 23.9599 14.7797 23.9599 14.96C23.9599 15.1404 23.8883 15.3133 23.7608 15.4409C23.6332 15.5684 23.4603 15.64 23.2799 15.64H11.7199C11.5396 15.64 11.3666 15.5684 11.2391 15.4409C11.1116 15.3133 11.0399 15.1404 11.0399 14.96C11.0399 14.7797 11.1116 14.6067 11.2391 14.4792C11.3666 14.3517 11.5396 14.28 11.7199 14.28ZM11.7199 18.36H23.2799C23.4603 18.36 23.6332 18.4317 23.7608 18.5592C23.8883 18.6867 23.9599 18.8597 23.9599 19.04C23.9599 19.2204 23.8883 19.3933 23.7608 19.5209C23.6332 19.6484 23.4603 19.72 23.2799 19.72H11.7199C11.5396 19.72 11.3666 19.6484 11.2391 19.5209C11.1116 19.3933 11.0399 19.2204 11.0399 19.04C11.0399 18.8597 11.1116 18.6867 11.2391 18.5592C11.3666 18.4317 11.5396 18.36 11.7199 18.36ZM11.7199 22.44H23.2799C23.4603 22.44 23.6332 22.5117 23.7608 22.6392C23.8883 22.7667 23.9599 22.9397 23.9599 23.12C23.9599 23.3004 23.8883 23.4733 23.7608 23.6009C23.6332 23.7284 23.4603 23.8 23.2799 23.8H11.7199C11.5396 23.8 11.3666 23.7284 11.2391 23.6009C11.1116 23.4733 11.0399 23.3004 11.0399 23.12C11.0399 22.9397 11.1116 22.7667 11.2391 22.6392C11.3666 22.5117 11.5396 22.44 11.7199 22.44Z" fill="white"/>
</svg>
