<svg width="32" height="32" viewBox="0 0 32 32" fill="none" xmlns="http://www.w3.org/2000/svg">
<path d="M25.3333 1.66663H6.66667C5.69421 1.66663 4.76158 2.05293 4.07394 2.74057C3.38631 3.4282 3 4.36083 3 5.33329V26.6666C3 27.6391 3.38631 28.5717 4.07394 29.2593C4.76158 29.947 5.69421 30.3333 6.66667 30.3333H25.3333C26.3058 30.3333 27.2384 29.947 27.9261 29.2593C28.6137 28.5717 29 27.6391 29 26.6666V5.33329C29 4.36083 28.6137 3.4282 27.9261 2.74057C27.2384 2.05293 26.3058 1.66663 25.3333 1.66663ZM14.04 22.3733L10.6667 25.7066C10.4792 25.8939 10.225 25.9991 9.96 25.9991C9.695 25.9991 9.44083 25.8939 9.25333 25.7066L7.25333 23.7066C7.07669 23.5171 6.98053 23.2663 6.9851 23.0073C6.98967 22.7482 7.09462 22.501 7.27784 22.3178C7.46106 22.1346 7.70824 22.0296 7.9673 22.0251C8.22637 22.0205 8.4771 22.1166 8.66667 22.2933L10 23.6266L12.6667 20.96C12.7582 20.8617 12.8686 20.7829 12.9913 20.7283C13.1139 20.6736 13.2464 20.6442 13.3806 20.6418C13.5149 20.6395 13.6483 20.6642 13.7728 20.7145C13.8973 20.7648 14.0104 20.8396 14.1054 20.9346C14.2003 21.0295 14.2752 21.1426 14.3255 21.2672C14.3758 21.3917 14.4005 21.5251 14.3981 21.6593C14.3958 21.7936 14.3664 21.926 14.3117 22.0487C14.2571 22.1713 14.1783 22.2817 14.08 22.3733H14.04ZM14.04 15.04L10.6667 18.3733C10.4792 18.5606 10.225 18.6657 9.96 18.6657C9.695 18.6657 9.44083 18.5606 9.25333 18.3733L7.25333 16.3733C7.07669 16.1837 6.98053 15.933 6.9851 15.6739C6.98967 15.4149 7.09462 15.1677 7.27784 14.9845C7.46106 14.8012 7.70824 14.6963 7.9673 14.6917C8.22637 14.6872 8.4771 14.7833 8.66667 14.96L10 16.2933L12.6667 13.6266C12.8562 13.45 13.107 13.3538 13.366 13.3584C13.6251 13.363 13.8723 13.4679 14.0555 13.6511C14.2387 13.8343 14.3437 14.0815 14.3482 14.3406C14.3528 14.5997 14.2566 14.8504 14.08 15.04H14.04ZM14.04 7.70663L10.6667 11.04C10.4833 11.2039 10.246 11.2946 10 11.2946C9.75402 11.2946 9.51667 11.2039 9.33333 11.04L7.33333 9.03996C7.19484 8.84933 7.12811 8.61591 7.14491 8.38088C7.16172 8.14585 7.26098 7.9243 7.42518 7.75531C7.58939 7.58632 7.808 7.48074 8.04245 7.4572C8.2769 7.43366 8.51214 7.49366 8.70667 7.62663L10.04 8.95996L12.7067 6.29329C12.8962 6.11665 13.147 6.02049 13.406 6.02506C13.6651 6.02963 13.9123 6.13458 14.0955 6.3178C14.2787 6.50101 14.3837 6.74819 14.3882 7.00726C14.3928 7.26633 14.2966 7.51706 14.12 7.70663H14.04ZM24 24.6666H17.3333C17.0681 24.6666 16.8138 24.5613 16.6262 24.3737C16.4387 24.1862 16.3333 23.9318 16.3333 23.6666C16.3333 23.4014 16.4387 23.1471 16.6262 22.9595C16.8138 22.772 17.0681 22.6666 17.3333 22.6666H24C24.2652 22.6666 24.5196 22.772 24.7071 22.9595C24.8946 23.1471 25 23.4014 25 23.6666C25 23.9318 24.8946 24.1862 24.7071 24.3737C24.5196 24.5613 24.2652 24.6666 24 24.6666ZM24 17.3333H17.3333C17.0681 17.3333 16.8138 17.2279 16.6262 17.0404C16.4387 16.8529 16.3333 16.5985 16.3333 16.3333C16.3333 16.0681 16.4387 15.8137 16.6262 15.6262C16.8138 15.4386 17.0681 15.3333 17.3333 15.3333H24C24.2652 15.3333 24.5196 15.4386 24.7071 15.6262C24.8946 15.8137 25 16.0681 25 16.3333C25 16.5985 24.8946 16.8529 24.7071 17.0404C24.5196 17.2279 24.2652 17.3333 24 17.3333ZM24 9.99996H17.3333C17.0681 9.99996 16.8138 9.8946 16.6262 9.70707C16.4387 9.51953 16.3333 9.26518 16.3333 8.99996C16.3333 8.73474 16.4387 8.48039 16.6262 8.29285C16.8138 8.10532 17.0681 7.99996 17.3333 7.99996H24C24.2652 7.99996 24.5196 8.10532 24.7071 8.29285C24.8946 8.48039 25 8.73474 25 8.99996C25 9.26518 24.8946 9.51953 24.7071 9.70707C24.5196 9.8946 24.2652 9.99996 24 9.99996Z" fill="white"/>
</svg>
