<svg width="24" height="24" viewBox="0 0 24 24" fill="none" xmlns="http://www.w3.org/2000/svg">
<g clip-path="url(#clip0_819_192)">
<path d="M8.04492 10.5824C7.65398 10.5824 7.33594 10.9004 7.33594 11.2914V12.0027H8.75391V11.2914C8.75391 10.9004 8.43586 10.5824 8.04492 10.5824Z" fill="white"/>
<path d="M13.4109 10.5824H12.7031V12.0027H13.4109C13.8025 12.0027 14.1211 11.6841 14.1211 11.2926C14.1211 10.9011 13.8025 10.5824 13.4109 10.5824Z" fill="white"/>
<path d="M17.148 4.40822L18.0565 2.81836H19.8901C20.1807 3.64003 20.9648 4.23047 21.8848 4.23047C23.0511 4.23047 24 3.28158 24 2.11523C24 0.948891 23.0511 0 21.8848 0C20.9649 0 20.1807 0.590438 19.8901 1.41211H17.2404L15.928 3.7087C15.3539 3.43561 14.7471 3.22041 14.1152 3.07073V0H12.709V2.85141C12.475 2.83345 12.2385 2.82422 12 2.82422C11.7615 2.82422 11.525 2.83341 11.291 2.85141V0H9.88477V3.07073C9.25289 3.22041 8.64609 3.43556 8.07197 3.7087L6.75961 1.41211H4.10986C3.81933 0.590438 3.03511 0 2.11523 0C0.948891 0 0 0.948891 0 2.11523C0 3.28158 0.948891 4.23047 2.11523 4.23047C3.03511 4.23047 3.81933 3.64003 4.10986 2.81836H5.94352L6.852 4.40822C5.82286 5.1083 4.94273 6.01172 4.27017 7.06055H0V8.4668H3.53212C3.16256 9.34922 2.92673 10.301 2.85089 11.2969H0V12.7031H2.85089C2.92673 13.699 3.16252 14.6508 3.53208 15.5332H0V16.9395H4.27017C4.94273 17.9883 5.82291 18.8917 6.852 19.5918L5.94352 21.1816H4.10986C3.81933 20.36 3.03516 19.7695 2.11523 19.7695C0.948891 19.7695 0 20.7184 0 21.8848C0 23.0511 0.948891 24 2.11523 24C3.03511 24 3.81933 23.4096 4.10986 22.5879H6.75961L8.07197 20.2913C8.64614 20.5644 9.25289 20.7796 9.88477 20.9293V24H11.291V21.1486C11.525 21.1665 11.7615 21.1758 12 21.1758C12.2385 21.1758 12.475 21.1666 12.709 21.1486V24H14.1152V20.9293C14.7471 20.7796 15.3539 20.5644 15.928 20.2913L17.2404 22.5879H19.8901C20.1807 23.4096 20.9649 24 21.8848 24C23.0511 24 24 23.0511 24 21.8848C24 20.7184 23.0511 19.7695 21.8848 19.7695C20.9649 19.7695 20.1807 20.36 19.8901 21.1816H18.0565L17.148 19.5918C18.1771 18.8917 19.0573 17.9883 19.7298 16.9395H24V15.5332H20.4679C20.8374 14.6508 21.0733 13.699 21.1491 12.7031H24V11.2969H21.1491C21.0733 10.301 20.8375 9.34922 20.4679 8.4668H24V7.06055H19.7298C19.0573 6.01172 18.1771 5.1083 17.148 4.40822ZM10.1602 14.8242H8.75391V13.4089H7.33594V14.8239H5.92969V11.2914C5.92969 10.125 6.87858 9.17616 8.04492 9.17616C9.21127 9.17616 10.1602 10.125 10.1602 11.2913V14.8242ZM13.4109 13.4089H12.7031V14.8239H11.2969V9.17611H13.4109C14.5779 9.17611 15.5273 10.1255 15.5273 11.2925C15.5273 12.4595 14.5779 13.4089 13.4109 13.4089ZM17.8528 14.8242H16.4465V9.17578H17.8528V14.8242Z" fill="white"/>
</g>
<defs>
<clipPath id="clip0_819_192">
<rect width="24" height="24" fill="white"/>
</clipPath>
</defs>
</svg>
