<svg width="42" height="42" viewBox="0 0 42 42" fill="none" xmlns="http://www.w3.org/2000/svg">
<path d="M32.0779 16.2979L28.79 15.9337L29.3183 14.7754C29.5766 14.2045 30.2486 13.9512 30.8195 14.2094C31.0708 14.3229 31.272 14.5244 31.3855 14.7754L32.0779 16.2979Z" fill="white"/>
<path d="M35.9428 25.0031C35.6462 25.2732 35.514 25.6797 35.595 26.0728L36.5039 30.4631C36.6296 31.0767 36.2345 31.6759 35.6209 31.8016C35.3522 31.8567 35.0723 31.8124 34.8337 31.6772L30.9127 29.4558C30.5747 29.2648 30.1626 29.2596 29.82 29.4427L28.98 25.3772C28.9114 25.0382 29.0259 24.6881 29.2819 24.4552L34.65 19.5792L38.6269 20.0222C39.2493 20.0901 39.6989 20.6499 39.6306 21.2723C39.6004 21.5473 39.4711 21.8016 39.2667 21.9877L35.9428 25.0031Z" fill="white"/>
<path d="M12.7183 24.4551C12.9743 24.6881 13.0888 25.0382 13.0202 25.3772L12.1736 29.4722L12.1441 29.4558C11.7973 29.2589 11.372 29.2589 11.0252 29.4558L7.1041 31.6772C6.5604 31.9869 5.86871 31.7973 5.55896 31.2539C5.42246 31.0143 5.37816 30.7331 5.43394 30.4631L6.33957 26.0728C6.42226 25.6797 6.29002 25.2722 5.99176 25.0031L2.67113 21.9876C2.20716 21.5686 2.17074 20.8526 2.58976 20.3887C2.7758 20.1826 3.03141 20.052 3.30769 20.0222L7.34363 19.5726L12.7183 24.4551Z" fill="white"/>
<path d="M13.148 15.9403L9.85693 16.3078L10.5526 14.7755C10.8095 14.2055 11.4798 13.9519 12.0498 14.2088C12.3015 14.3224 12.5029 14.5238 12.6165 14.7755L13.148 15.9403Z" fill="white"/>
<path d="M28.8389 23.9695C28.4136 24.3594 28.2243 24.9434 28.3401 25.5084L29.8758 32.947C29.9857 33.4743 29.6477 33.9908 29.1204 34.1011C28.8878 34.1496 28.6453 34.1116 28.4386 33.9938L21.8072 30.2334C21.3068 29.949 20.6932 29.949 20.1928 30.2334L13.5614 33.9938C13.0935 34.2602 12.4979 34.0968 12.2315 33.6289C12.1137 33.4222 12.0756 33.1797 12.1242 32.947L13.6598 25.5084C13.7757 24.9434 13.5863 24.3594 13.1611 23.9695L7.53374 18.8574C7.13474 18.4948 7.10488 17.8772 7.46746 17.4779C7.62725 17.302 7.84546 17.1905 8.08171 17.1642L15.6581 16.3242C16.229 16.2579 16.7242 15.8983 16.964 15.3759L20.1108 8.44923C20.3326 7.95803 20.9104 7.73982 21.4013 7.96131C21.6178 8.05909 21.7914 8.23267 21.8892 8.44923L25.0359 15.3759C25.2758 15.8983 25.7709 16.2579 26.3419 16.3242L33.9183 17.1642C34.4541 17.2243 34.84 17.7073 34.7799 18.2431C34.7533 18.479 34.6418 18.6976 34.4662 18.8574L28.8389 23.9695Z" fill="white"/>
</svg>
