<svg width="32" height="32" viewBox="0 0 32 32" fill="none" xmlns="http://www.w3.org/2000/svg">
<g clip-path="url(#clip0_819_239)">
<path d="M27.4792 30.118L14.8932 23.454C14.5652 23.28 14.1652 23.304 13.8552 23.514L4.23122 30.178C3.87122 30.428 3.71522 30.882 3.84722 31.3C3.97522 31.714 4.36322 32 4.79922 32H27.0092C27.4672 32 27.8692 31.688 27.9792 31.24C28.0912 30.794 27.8832 30.332 27.4792 30.118Z" fill="white"/>
<path d="M31.6914 28.218L28.7314 14.892C28.6594 14.566 28.4294 14.3 28.1194 14.178C27.8074 14.056 27.4574 14.098 27.1854 14.286L17.5594 20.95C17.2714 21.15 17.1094 21.484 17.1314 21.83C17.1514 22.18 17.3534 22.492 17.6614 22.654L30.2454 29.318C30.3934 29.396 30.5534 29.436 30.7134 29.436C30.9274 29.436 31.1414 29.368 31.3194 29.23C31.6294 28.994 31.7754 28.6 31.6914 28.218Z" fill="white"/>
<path d="M24.7271 12.702C24.5951 12.284 24.2091 12 23.7711 12H14.6431C12.9831 15.006 10.5271 17.88 9.51713 19.004C8.94913 19.636 8.13513 20 7.28513 20C6.43513 20 5.62113 19.636 5.05313 19.004C4.66313 18.57 4.05913 17.876 3.36713 17.016L0.947128 27.908C0.859128 28.31 1.02513 28.724 1.36513 28.954C1.53313 29.068 1.72913 29.124 1.92313 29.124C2.12313 29.124 2.32113 29.066 2.49313 28.946L24.3391 13.82C24.7011 13.574 24.8551 13.12 24.7271 12.702Z" fill="white"/>
<path d="M7.28516 0C3.42516 0 0.285156 3.14 0.285156 7C0.285156 10.592 5.90116 16.954 6.54116 17.668C6.73116 17.878 7.00116 18 7.28516 18C7.56916 18 7.83916 17.878 8.02916 17.668C8.66916 16.954 14.2852 10.592 14.2852 7C14.2852 3.14 11.1452 0 7.28516 0ZM7.28516 10C5.62916 10 4.28516 8.656 4.28516 7C4.28516 5.344 5.62916 4 7.28516 4C8.94116 4 10.2852 5.344 10.2852 7C10.2852 8.656 8.94116 10 7.28516 10Z" fill="white"/>
</g>
<defs>
<clipPath id="clip0_819_239">
<rect width="32" height="32" fill="white"/>
</clipPath>
</defs>
</svg>
