<svg width="26" height="18" viewBox="0 0 26 18" fill="none" xmlns="http://www.w3.org/2000/svg">
<path d="M25.5433 6.72022C25.5435 7.31368 25.3385 7.88896 24.9632 8.34869C24.588 8.80842 24.0653 9.12437 23.4839 9.24306V16.5026C23.4829 16.6881 23.4319 16.8698 23.3362 17.0287C23.2405 17.1875 23.1037 17.3176 22.9403 17.4051C22.7768 17.4927 22.5927 17.5344 22.4075 17.526C22.2222 17.5176 22.0427 17.4593 21.8878 17.3573L19.2929 15.6274L15.7094 17.4191C15.5656 17.4916 15.4071 17.5303 15.246 17.5324C15.0441 17.5314 14.847 17.4705 14.6797 17.3573L12.1569 15.6789L9.63402 17.3573C9.48323 17.4579 9.30843 17.5166 9.12751 17.5274C8.94659 17.5383 8.76604 17.5009 8.6043 17.4191L4.48538 15.3596C4.2626 15.2256 4.09878 15.0122 4.0268 14.7624C3.95482 14.5125 3.98003 14.2447 4.09734 14.0127C4.21466 13.7807 4.41541 13.6016 4.65929 13.5115C4.90317 13.4213 5.17211 13.4268 5.41214 13.5267L8.99559 15.3185L11.5905 13.5885C11.7567 13.4729 11.9544 13.4109 12.1569 13.4109C12.3594 13.4109 12.557 13.4729 12.7232 13.5885L15.3181 15.3185L18.9016 13.5267C19.0633 13.4449 19.2439 13.4076 19.4248 13.4184C19.6057 13.4293 19.7805 13.488 19.9313 13.5885L21.4244 14.5771V8.26482C21.4244 7.99172 21.5329 7.7298 21.726 7.53669C21.9191 7.34358 22.181 7.23509 22.4542 7.23509H22.969C23.1056 7.23509 23.2365 7.18084 23.3331 7.08429C23.4296 6.98773 23.4839 6.85678 23.4839 6.72022C23.4839 6.58367 23.4296 6.45272 23.3331 6.35616C23.2365 6.2596 23.1056 6.20536 22.969 6.20536H18.3352C18.0621 6.20536 17.8002 6.09687 17.6071 5.90376C17.414 5.71065 17.3055 5.44873 17.3055 5.17563C17.3055 4.90253 17.414 4.64061 17.6071 4.4475C17.8002 4.25439 18.0621 4.1459 18.3352 4.1459H21.4244V3.11617C21.4244 2.84307 21.3159 2.58116 21.1228 2.38805C20.9297 2.19493 20.6678 2.08644 20.3947 2.08644H11.1271C10.854 2.08644 10.5921 2.19493 10.399 2.38805C10.2059 2.58116 10.0974 2.84307 10.0974 3.11617V8.26482C10.0974 8.53792 9.98891 8.79983 9.7958 8.99295C9.60269 9.18606 9.34078 9.29455 9.06767 9.29455H3.91903C3.64593 9.29455 3.38401 9.40304 3.1909 9.59615C2.99779 9.78926 2.8893 10.0512 2.8893 10.3243V16.5026C2.8893 16.7758 2.78081 17.0377 2.5877 17.2308C2.39459 17.4239 2.13267 17.5324 1.85957 17.5324C1.58647 17.5324 1.32456 17.4239 1.13144 17.2308C0.938332 17.0377 0.829843 16.7758 0.829843 16.5026V9.11949C0.828845 8.71222 0.908392 8.30876 1.06391 7.93235C1.21942 7.55593 1.44784 7.21398 1.736 6.92617L7.72903 0.933148C8.01683 0.644979 8.35879 0.416566 8.7352 0.261051C9.11162 0.105536 9.51507 0.0259888 9.92235 0.0269868H20.3947C21.2132 0.0294315 21.9976 0.355683 22.5764 0.934489C23.1552 1.5133 23.4814 2.29762 23.4839 3.11617V4.19739C24.0653 4.31608 24.588 4.63203 24.9632 5.09176C25.3385 5.55149 25.5435 6.12676 25.5433 6.72022Z" fill="white"/>
</svg>
