<svg width="25" height="28" viewBox="0 0 25 28" fill="none" xmlns="http://www.w3.org/2000/svg">
<path d="M2.97994 0.400024C1.86134 0.400024 0.939941 1.32142 0.939941 2.44002V25.56C0.939941 26.6786 1.86134 27.6 2.97994 27.6H22.0199C23.1385 27.6 24.0599 26.6786 24.0599 25.56V8.56003H17.9399C16.8213 8.56003 15.8999 7.63863 15.8999 6.52002V0.400024H2.97994ZM17.2599 0.798462V6.52002C17.2599 6.90363 17.5563 7.20002 17.9399 7.20002H23.6615L17.2599 0.798462ZM6.71994 7.20002H12.8399C12.9292 7.20002 13.0177 7.21761 13.1002 7.25179C13.1827 7.28596 13.2576 7.33605 13.3208 7.39919C13.3839 7.46234 13.434 7.5373 13.4682 7.6198C13.5024 7.7023 13.5199 7.79073 13.5199 7.88003C13.5199 8.06037 13.4483 8.23333 13.3208 8.36086C13.1932 8.48838 13.0203 8.56003 12.8399 8.56003H6.71994C6.53959 8.56003 6.36663 8.48838 6.23911 8.36086C6.11158 8.23333 6.03994 8.06037 6.03994 7.88003C6.03994 7.79073 6.05753 7.7023 6.0917 7.6198C6.12588 7.5373 6.17597 7.46234 6.23911 7.39919C6.30225 7.33605 6.37722 7.28596 6.45972 7.25179C6.54222 7.21761 6.63064 7.20002 6.71994 7.20002ZM6.71994 11.28H18.2799C18.4603 11.28 18.6332 11.3517 18.7608 11.4792C18.8883 11.6067 18.9599 11.7797 18.9599 11.96C18.9599 12.1404 18.8883 12.3133 18.7608 12.4409C18.6332 12.5684 18.4603 12.64 18.2799 12.64H6.71994C6.53959 12.64 6.36663 12.5684 6.23911 12.4409C6.11158 12.3133 6.03994 12.1404 6.03994 11.96C6.03994 11.7797 6.11158 11.6067 6.23911 11.4792C6.36663 11.3517 6.53959 11.28 6.71994 11.28ZM6.71994 15.36H18.2799C18.4603 15.36 18.6332 15.4317 18.7608 15.5592C18.8883 15.6867 18.9599 15.8597 18.9599 16.04C18.9599 16.2204 18.8883 16.3933 18.7608 16.5209C18.6332 16.6484 18.4603 16.72 18.2799 16.72H6.71994C6.53959 16.72 6.36663 16.6484 6.23911 16.5209C6.11158 16.3933 6.03994 16.2204 6.03994 16.04C6.03994 15.8597 6.11158 15.6867 6.23911 15.5592C6.36663 15.4317 6.53959 15.36 6.71994 15.36ZM6.71994 19.44H18.2799C18.4603 19.44 18.6332 19.5117 18.7608 19.6392C18.8883 19.7667 18.9599 19.9397 18.9599 20.12C18.9599 20.3004 18.8883 20.4733 18.7608 20.6009C18.6332 20.7284 18.4603 20.8 18.2799 20.8H6.71994C6.53959 20.8 6.36663 20.7284 6.23911 20.6009C6.11158 20.4733 6.03994 20.3004 6.03994 20.12C6.03994 19.9397 6.11158 19.7667 6.23911 19.6392C6.36663 19.5117 6.53959 19.44 6.71994 19.44Z" fill="white"/>
</svg>
