<svg width="20" height="26" viewBox="0 0 20 26" fill="none" xmlns="http://www.w3.org/2000/svg">
<path d="M10 0.5C11.6576 0.5 13.2473 1.15848 14.4194 2.33058C15.5915 3.50269 16.25 5.0924 16.25 6.75V10.5C17.2446 10.5 18.1984 10.8951 18.9017 11.5983C19.6049 12.3016 20 13.2554 20 14.25V21.75C20 22.7446 19.6049 23.6984 18.9017 24.4017C18.1984 25.1049 17.2446 25.5 16.25 25.5H3.75C2.75544 25.5 1.80161 25.1049 1.09835 24.4017C0.395088 23.6984 0 22.7446 0 21.75V14.25C0 13.2554 0.395088 12.3016 1.09835 11.5983C1.80161 10.8951 2.75544 10.5 3.75 10.5V6.75C3.75 5.0924 4.40848 3.50269 5.58058 2.33058C6.75269 1.15848 8.3424 0.5 10 0.5ZM10 15.5C9.36928 15.4998 8.76179 15.738 8.29931 16.1669C7.83684 16.5957 7.55355 17.1836 7.50625 17.8125L7.5 18C7.5 18.4945 7.64662 18.9778 7.92133 19.3889C8.19603 19.8 8.58648 20.1205 9.04329 20.3097C9.50011 20.4989 10.0028 20.5484 10.4877 20.452C10.9727 20.3555 11.4181 20.1174 11.7678 19.7678C12.1174 19.4181 12.3555 18.9727 12.452 18.4877C12.5484 18.0028 12.4989 17.5001 12.3097 17.0433C12.1205 16.5865 11.8 16.196 11.3889 15.9213C10.9778 15.6466 10.4945 15.5 10 15.5ZM10 3C9.00544 3 8.05161 3.39509 7.34835 4.09835C6.64509 4.80161 6.25 5.75544 6.25 6.75V10.5H13.75V6.75C13.75 5.75544 13.3549 4.80161 12.6517 4.09835C11.9484 3.39509 10.9946 3 10 3Z" fill="white"/>
</svg>
