<svg width="20" height="25" viewBox="0 0 20 25" fill="none" xmlns="http://www.w3.org/2000/svg">
<path d="M9.93095 18.5417C10.2733 18.5417 10.5605 18.4257 10.7925 18.1937C11.0245 17.9617 11.1401 17.6749 11.1393 17.3333V12.5C11.1393 12.1576 11.0233 11.8708 10.7913 11.6397C10.5593 11.4085 10.2725 11.2925 9.93095 11.2917C9.58939 11.2908 9.30262 11.4068 9.07062 11.6397C8.83862 11.8725 8.72262 12.1592 8.72262 12.5V17.3333C8.72262 17.6757 8.83862 17.9629 9.07062 18.1949C9.30262 18.4269 9.58939 18.5425 9.93095 18.5417ZM9.93095 8.87498C10.2733 8.87498 10.5605 8.75898 10.7925 8.52698C11.0245 8.29498 11.1401 8.00821 11.1393 7.66665C11.1385 7.3251 11.0225 7.03832 10.7913 6.80632C10.5601 6.57432 10.2733 6.45832 9.93095 6.45832C9.58859 6.45832 9.30181 6.57432 9.07062 6.80632C8.83942 7.03832 8.72342 7.3251 8.72262 7.66665C8.72181 8.00821 8.83781 8.29539 9.07062 8.52819C9.30342 8.761 9.5902 8.87659 9.93095 8.87498ZM9.93095 24.4625C9.78998 24.4625 9.65907 24.4524 9.53824 24.4323C9.41741 24.4121 9.29657 24.3819 9.17574 24.3417C6.45699 23.4354 4.29206 21.7586 2.68095 19.3114C1.06984 16.8641 0.264282 14.2311 0.264282 11.4125V5.70311C0.264282 5.19964 0.41049 4.74651 0.702907 4.34373C0.995324 3.94096 1.37273 3.64894 1.83512 3.46769L9.08512 0.748942C9.36706 0.648248 9.649 0.5979 9.93095 0.5979C10.2129 0.5979 10.4948 0.648248 10.7768 0.748942L18.0268 3.46769C18.49 3.64894 18.8678 3.94096 19.1602 4.34373C19.4526 4.74651 19.5984 5.19964 19.5976 5.70311V11.4125C19.5976 14.2319 18.7921 16.8653 17.181 19.3126C15.5698 21.7598 13.4049 23.4362 10.6862 24.3417C10.5653 24.3819 10.4445 24.4121 10.3237 24.4323C10.2028 24.4524 10.0719 24.4625 9.93095 24.4625Z" fill="white"/>
</svg>
