<svg width="26" height="28" viewBox="0 0 26 28" fill="none" xmlns="http://www.w3.org/2000/svg">
<path d="M24.9531 8.375H19.7969V7.67188C19.7955 5.89877 19.1021 4.19624 17.8642 2.92676C16.6263 1.65727 14.9418 0.92111 13.1693 0.875H12.8307C11.0582 0.92111 9.37367 1.65727 8.13581 2.92676C6.89795 4.19624 6.20451 5.89877 6.20312 7.67188V8.375H1.04688C0.984715 8.375 0.925101 8.39969 0.881147 8.44365C0.837193 8.4876 0.8125 8.54721 0.8125 8.60938V26.1875C0.8125 26.4361 0.911272 26.6746 1.08709 26.8504C1.2629 27.0262 1.50136 27.125 1.75 27.125H24.25C24.4986 27.125 24.7371 27.0262 24.9129 26.8504C25.0887 26.6746 25.1875 26.4361 25.1875 26.1875V8.60938C25.1875 8.54721 25.1628 8.4876 25.1189 8.44365C25.0749 8.39969 25.0153 8.375 24.9531 8.375ZM8.54688 7.73047C8.54688 5.27891 10.5045 3.24453 12.9561 3.21875C13.5444 3.21357 14.1279 3.32489 14.673 3.5463C15.218 3.76772 15.7139 4.09484 16.1319 4.5088C16.55 4.92277 16.882 5.41539 17.1087 5.95827C17.3355 6.50115 17.4525 7.08354 17.4531 7.67188V8.375H8.54688V7.73047ZM17.6875 18.6875H13.9375V22.4375H12.0625V18.6875H8.3125V16.8125H12.0625V13.0625H13.9375V16.8125H17.6875V18.6875Z" fill="white"/>
</svg>
