<svg width="24" height="30" viewBox="0 0 24 30" fill="none" xmlns="http://www.w3.org/2000/svg">
<path fill-rule="evenodd" clip-rule="evenodd" d="M7.03923 5.18996C7.03923 3.8743 7.56187 2.61252 8.49219 1.68221C9.4225 0.751893 10.6843 0.229248 11.9999 0.229248C13.3156 0.229248 14.5774 0.751893 15.5077 1.68221C16.438 2.61252 16.9607 3.8743 16.9607 5.18996C16.9607 6.50562 16.438 7.7674 15.5077 8.69772C14.5774 9.62803 13.3156 10.1507 11.9999 10.1507C10.6843 10.1507 9.4225 9.62803 8.49219 8.69772C7.56187 7.7674 7.03923 6.50562 7.03923 5.18996ZM2.24137 13.3157C3.25118 12.3571 4.59043 11.8226 5.9828 11.8226C7.37516 11.8226 8.71441 12.3571 9.72423 13.3157L9.74566 13.3371L11.9999 15.5914L14.2564 13.3371L14.2778 13.3157C15.2874 12.3583 16.6257 11.8246 18.0171 11.8246C19.4084 11.8246 20.7468 12.3583 21.7564 13.3157C22.2579 13.7913 22.6573 14.3639 22.9305 14.9988C23.2037 15.6336 23.3449 16.3174 23.3455 17.0086C23.3461 17.6997 23.2061 18.3838 22.934 19.0191C22.6619 19.6544 22.2634 20.2278 21.7628 20.7042L12.7457 29.4685C12.5457 29.6629 12.2778 29.7717 11.9989 29.7717C11.72 29.7717 11.4521 29.6629 11.2521 29.4685L2.23708 20.7042C1.73663 20.2279 1.33826 19.6549 1.06619 19.0198C0.794113 18.3847 0.654019 17.701 0.65442 17.0101C0.654821 16.3192 0.795708 15.6356 1.06852 15.0009C1.34133 14.3662 1.74036 13.7914 2.24137 13.3157Z" fill="white"/>
</svg>
