<svg width="24" height="23" viewBox="0 0 24 23" fill="none" xmlns="http://www.w3.org/2000/svg">
<path d="M23.6489 14.6532C23.6395 14.6387 23.6316 14.6251 23.6208 14.612C22.2998 12.9179 22.3027 12.2256 22.3069 11.4484C22.3083 11.2238 22.3083 10.9928 22.2844 10.7293C22.0331 7.95244 20.1108 5.97525 17.6977 5.004C16.5923 4.55775 15.3816 4.32385 14.182 4.32244C13.4789 4.32103 12.7791 4.39932 12.1064 4.5615C12.743 5.46619 13.0884 6.54947 13.0884 7.67494C13.0884 8.82806 12.8241 9.7651 12.1289 10.6899C11.9203 10.9674 11.6906 11.2253 11.4605 11.4831C11.3489 11.6068 11.2397 11.7301 11.1323 11.8567C11.0086 12.0001 10.9092 12.1595 10.8427 12.3376C10.7761 12.5171 10.7508 12.7042 10.7508 12.8945V13.6599C10.7508 14.3987 10.4573 15.1028 9.93375 15.6249C9.65859 15.9001 9.33328 16.1124 8.97844 16.2507C9.8925 17.6138 10.4442 19.0984 8.80547 22.4345C8.77359 22.4903 8.75625 22.554 8.75625 22.622C8.75625 22.8292 8.92359 22.9979 9.13078 22.9979H17.9869V22.9965C18.1556 22.9965 18.3084 22.8807 18.3497 22.711L18.7814 20.9293C19.9706 21.1501 20.9925 21.2148 21.6516 20.9518C22.4475 20.6331 22.7559 19.9501 22.312 18.7037C22.4142 18.632 22.5033 18.5509 22.5736 18.4618C22.6917 18.3142 22.7634 18.1445 22.7784 17.9701C22.7944 17.784 22.748 17.5965 22.627 17.4268L22.6242 17.4226C22.6495 17.3973 22.6734 17.372 22.6973 17.3457C22.785 17.2435 22.8567 17.124 22.8966 16.9895C22.9327 16.8671 22.9416 16.7359 22.9139 16.5976C23.1384 16.5657 23.3658 16.5048 23.5542 16.3876C24.0211 16.1003 24.2241 15.5884 23.6489 14.6532ZM13.1002 13.1026C12.9539 13.2488 12.7163 13.2488 12.57 13.1026L11.7061 12.2387C11.5598 12.0924 11.5598 11.8548 11.7061 11.7085C11.8523 11.5623 12.09 11.5623 12.2362 11.7085L13.1002 12.5724C13.2459 12.7182 13.2459 12.9563 13.1002 13.1026ZM14.9733 8.049H13.7522C13.545 8.049 13.3777 7.88025 13.3777 7.67447C13.3777 7.46728 13.545 7.29853 13.7522 7.29853H14.9733C15.1805 7.29853 15.3478 7.46728 15.3478 7.67447C15.3483 7.88025 15.1809 8.049 14.9733 8.049ZM9.40359 15.0943C9.03563 15.4623 8.52797 15.691 7.96875 15.691H7.37484C6.81563 15.691 6.30797 15.4623 5.94 15.0943C5.70469 14.859 5.52562 14.567 5.42859 14.2398H9.91687C9.81797 14.5665 9.63984 14.859 9.40359 15.0943ZM7.29609 12.0381H5.18859C5.09578 11.8004 4.95984 11.5782 4.78078 11.3682C4.65328 11.2182 4.54688 11.0996 4.44187 10.9829C3.67406 10.1246 3.00422 9.3751 3.00422 7.67447C3.00422 6.38541 3.52641 5.21916 4.37156 4.374C5.21672 3.52885 6.38344 3.00666 7.67203 3.00666C8.96062 3.00666 10.1273 3.52885 10.9711 4.374C11.8162 5.21916 12.3384 6.38588 12.3384 7.67447C12.3384 9.3751 11.6686 10.1246 10.9008 10.9829C10.7972 11.0996 10.6908 11.2182 10.5619 11.3682C10.3823 11.5782 10.2469 11.7999 10.1541 12.0381H8.04656V9.03385L8.49187 8.58853C8.63813 8.44228 8.63813 8.20463 8.49187 8.05838C8.34562 7.91213 8.10797 7.91213 7.96172 8.05838L7.67203 8.34947L7.38094 8.05838C7.23469 7.91213 6.99703 7.91213 6.85078 8.05838C6.70453 8.20463 6.70453 8.44228 6.85078 8.58853L7.29609 9.03385V12.0381ZM5.34281 13.4888V12.8935C5.34281 12.8574 5.34141 12.8218 5.34 12.7871H10.0027C10.0013 12.8218 10.0013 12.8574 10.0013 12.8935V13.4888H5.34281ZM1.95984 7.67447C1.95984 7.87791 1.79484 8.04244 1.59047 8.04244H0.369375C0.165937 8.04244 0 7.87791 0 7.67447C0 7.46963 0.165937 7.3051 0.369375 7.3051H1.59047C1.79484 7.3051 1.95984 7.4701 1.95984 7.67447ZM3.63281 11.7128C3.77766 11.8576 3.77766 12.0915 3.63281 12.2349L2.76891 13.0984C2.62547 13.2432 2.39156 13.2432 2.24672 13.0984C2.10328 12.9549 2.10328 12.721 2.24672 12.5762L3.11063 11.7123C3.25547 11.5688 3.48938 11.5688 3.63281 11.7128ZM11.7103 3.63525C11.5669 3.49182 11.5669 3.25791 11.7103 3.11307L12.5742 2.24916C12.7191 2.10572 12.953 2.10572 13.0964 2.24916C13.2413 2.394 13.2413 2.62791 13.0964 2.77135L12.2325 3.63525C12.0886 3.7801 11.8552 3.7801 11.7103 3.63525ZM7.30266 1.59291V0.371816C7.30266 0.168379 7.46766 0.00244141 7.67203 0.00244141C7.87547 0.00244141 8.04 0.168379 8.04 0.371816V1.59291C8.04 1.79775 7.875 1.96228 7.67203 1.96228C7.46766 1.96228 7.30266 1.79729 7.30266 1.59291ZM2.24672 2.77135C2.10328 2.62791 2.10328 2.394 2.24672 2.24916C2.39156 2.10572 2.62547 2.10572 2.76891 2.24916L3.63281 3.11307C3.77766 3.25791 3.77766 3.49182 3.63281 3.63525C3.48938 3.7801 3.25547 3.7801 3.11063 3.63525L2.24672 2.77135Z" fill="#16C2D5"/>
</svg>
