<svg width="24" height="25" viewBox="0 0 24 25" fill="none" xmlns="http://www.w3.org/2000/svg">
<path d="M23.614 13.3738C23.6511 14.2598 23.3352 15.1244 22.7356 15.7779C22.136 16.4313 21.3017 16.8203 20.4157 16.8594C20.3639 16.8618 20.3122 16.863 20.2605 16.863C20.0251 16.8628 19.7904 16.8373 19.5605 16.787C18.8781 17.8405 17.9834 18.74 16.9336 19.4279C15.8837 20.1159 14.7019 20.5771 13.4636 20.7822C13.3171 21.2124 13.0249 21.578 12.6375 21.8157C12.2501 22.0534 11.7918 22.1483 11.3418 22.0839C10.8919 22.0196 10.4786 21.8 10.1733 21.4632C9.86806 21.1265 9.69007 20.6936 9.67011 20.2395C9.65015 19.7854 9.78946 19.3386 10.064 18.9764C10.3385 18.6141 10.731 18.3591 11.1735 18.2555C11.6161 18.1519 12.0809 18.2062 12.4877 18.409C12.8945 18.6118 13.2177 18.9503 13.4013 19.3661C15.1447 19.0437 16.7196 18.1197 17.8517 16.7553C18.9837 15.3908 19.601 13.6724 19.5961 11.8994C19.5961 7.71092 16.1885 4.30334 12 4.30334C7.81148 4.30334 4.4039 7.71092 4.4039 11.8994C4.40367 13.1946 4.73468 14.4683 5.36545 15.5995C5.38683 15.6368 5.40287 15.6769 5.41312 15.7187C5.47405 15.8881 5.46753 16.0743 5.39493 16.239C5.32233 16.4037 5.18919 16.5342 5.02307 16.6034C4.61632 16.7746 4.17945 16.8627 3.73814 16.8627C3.6862 16.8627 3.63415 16.8615 3.58199 16.859C2.69638 16.8195 1.8626 16.4303 1.26348 15.7769C0.664369 15.1235 0.348814 14.2591 0.38601 13.3734C0.400963 13.0202 0.392619 12.7051 0.384463 12.4003C0.376869 12.1134 0.368948 11.8167 0.381979 11.5071C0.42087 10.6423 0.792882 9.82605 1.4201 9.22937C2.04731 8.6327 2.88108 8.30185 3.74676 8.30614C5.13689 5.12558 8.31281 2.89709 12 2.89709C15.6872 2.89709 18.8632 5.12558 20.2533 8.30619C21.119 8.30125 21.9531 8.63181 22.5804 9.2285C23.2077 9.82519 23.5796 10.6416 23.618 11.5066C23.631 11.8167 23.6232 12.1133 23.6155 12.4003C23.6074 12.705 23.599 13.0203 23.614 13.3738ZM17.8971 11.8994C17.8968 12.8029 17.6889 13.6942 17.2896 14.5046C16.8903 15.315 16.3102 16.0229 15.5941 16.5736C14.8779 17.1244 14.0448 17.5033 13.1591 17.6812C12.2733 17.859 11.3585 17.8311 10.4853 17.5994L8.09835 18.9779C7.97792 19.0474 7.83956 19.0797 7.70078 19.0706C7.562 19.0615 7.42904 19.0115 7.3187 18.9268C7.20836 18.8422 7.12561 18.7267 7.08091 18.595C7.03621 18.4633 7.03157 18.3213 7.06757 18.187L7.6776 15.9113C6.66736 14.8193 6.10525 13.387 6.10312 11.8994C6.10312 8.64688 8.74832 6.00097 12 6.00097C15.2517 6.00097 17.8971 8.64688 17.8971 11.8994ZM10.3605 11.8994C10.3605 11.713 10.2865 11.5341 10.1546 11.4023C10.0227 11.2704 9.8439 11.1963 9.65742 11.1963H9.65624C9.51724 11.1966 9.38142 11.238 9.26597 11.3154C9.15051 11.3929 9.0606 11.5028 9.00758 11.6313C8.95456 11.7598 8.94082 11.9011 8.9681 12.0374C8.99538 12.1737 9.06245 12.2989 9.16084 12.3971C9.25922 12.4953 9.38451 12.5621 9.52087 12.5891C9.65722 12.6162 9.79853 12.6022 9.92693 12.5489C10.0553 12.4957 10.1651 12.4055 10.2423 12.2899C10.3195 12.1743 10.3607 12.0384 10.3607 11.8994H10.3605ZM12.7033 11.8994C12.7032 11.8764 12.702 11.8534 12.6995 11.8305C12.6973 11.8076 12.6939 11.7847 12.6892 11.7621C12.685 11.7396 12.6794 11.7173 12.6723 11.6955C12.6658 11.6735 12.6578 11.6519 12.6494 11.6304C12.641 11.6088 12.6307 11.5887 12.6199 11.5685C12.6092 11.5482 12.5974 11.5285 12.5847 11.5094C12.5719 11.4902 12.5581 11.4715 12.5434 11.4537C12.529 11.4357 12.5135 11.4187 12.4971 11.4026C12.4811 11.3862 12.4638 11.3707 12.446 11.3557C12.4281 11.3416 12.4094 11.3276 12.3901 11.3149C12.3711 11.3022 12.3514 11.2905 12.3311 11.2798C12.3109 11.269 12.2899 11.2591 12.2687 11.2502C12.2476 11.2414 12.226 11.2337 12.2041 11.2273C12.1602 11.2132 12.115 11.2041 12.0691 11.2001C12.0002 11.1934 11.9308 11.1967 11.8628 11.2099C11.8402 11.2145 11.8179 11.2203 11.7959 11.2273C11.7739 11.2337 11.7523 11.2414 11.7312 11.2502C11.7101 11.2591 11.689 11.269 11.6688 11.2798C11.6487 11.2905 11.629 11.3023 11.6097 11.3149C11.5904 11.3276 11.5717 11.3416 11.5544 11.3557C11.5362 11.3707 11.5193 11.3862 11.5029 11.4026C11.4864 11.4187 11.4709 11.4357 11.4564 11.4537C11.4419 11.4715 11.4283 11.4902 11.4157 11.5094C11.4028 11.5285 11.3909 11.5482 11.3801 11.5685C11.3693 11.5886 11.3595 11.6092 11.351 11.6304C11.3421 11.6517 11.3342 11.6734 11.3275 11.6955C11.321 11.7171 11.3154 11.7396 11.3107 11.7621C11.3061 11.7847 11.3026 11.8076 11.3003 11.8305C11.298 11.8535 11.2971 11.8765 11.2971 11.8994C11.2971 11.9224 11.298 11.9458 11.3003 11.9688C11.3026 11.9916 11.3061 12.0143 11.3107 12.0368C11.3154 12.0593 11.321 12.0818 11.3275 12.1038C11.3342 12.1258 11.3421 12.1473 11.351 12.1685C11.3595 12.1898 11.3693 12.2106 11.3801 12.2308C11.3908 12.251 11.403 12.2707 11.4157 12.2899C11.4283 12.309 11.4419 12.3275 11.4564 12.3452C11.471 12.3632 11.4865 12.3804 11.5029 12.3968C11.5193 12.4127 11.5362 12.4287 11.5544 12.4432C11.5721 12.4578 11.5905 12.4714 11.6097 12.484C11.629 12.4966 11.6486 12.5088 11.6688 12.5196C11.7095 12.5408 11.752 12.5584 11.7959 12.5721C11.8178 12.5787 11.8403 12.5843 11.8628 12.589C11.908 12.5982 11.9541 12.6028 12.0002 12.6026C12.1864 12.6021 12.365 12.5281 12.4971 12.3968C12.5295 12.3639 12.5588 12.3281 12.5847 12.2899C12.5974 12.2707 12.6091 12.251 12.6199 12.2308C12.6307 12.2107 12.6405 12.1896 12.6494 12.1685C12.6583 12.1474 12.6658 12.1254 12.6723 12.1038C12.6793 12.0818 12.685 12.0595 12.6892 12.0368C12.6938 12.0143 12.6973 11.9916 12.6995 11.9688C12.7019 11.9457 12.7031 11.9225 12.7031 11.8993L12.7033 11.8994ZM15.047 11.8994C15.047 11.713 14.9729 11.5341 14.8411 11.4023C14.7092 11.2704 14.5304 11.1963 14.3439 11.1963H14.3425C14.2035 11.1966 14.0677 11.238 13.9523 11.3155C13.8368 11.3929 13.7469 11.5028 13.6939 11.6313C13.6409 11.7598 13.6272 11.9011 13.6544 12.0374C13.6817 12.1737 13.7488 12.2989 13.8472 12.3971C13.9456 12.4953 14.0709 12.5621 14.2072 12.5892C14.3436 12.6162 14.4849 12.6022 14.6133 12.5489C14.7417 12.4957 14.8514 12.4055 14.9286 12.2899C15.0058 12.1743 15.047 12.0384 15.047 11.8994Z" fill="#16C2D5"/>
</svg>
