<svg width="24" height="25" viewBox="0 0 24 25" fill="none" xmlns="http://www.w3.org/2000/svg">
<path d="M3.10317 18.2561C1.99903 16.5569 1.40625 14.5742 1.40625 12.5C1.40625 9.6703 2.50819 7.00995 4.50909 5.00909C6.51 3.00819 9.1703 1.90625 12 1.90625C14.0742 1.90625 16.0569 2.49903 17.7561 3.60322C17.9706 3.16925 18.3031 2.80386 18.7116 2.54891C16.7451 1.21667 14.4278 0.5 12 0.5C8.79469 0.5 5.78124 1.74823 3.51473 4.01469C1.24823 6.28124 0 9.29469 0 12.5C0 14.9278 0.716625 17.2451 2.04886 19.2116C2.30381 18.8031 2.6692 18.4706 3.10317 18.2561Z" fill="#16C2D5"/>
<path d="M22.2177 6.2002C21.9471 6.59709 21.5689 6.91471 21.1256 7.11182C22.0827 8.72643 22.5938 10.5738 22.5938 12.5C22.5938 15.3297 21.4918 17.99 19.4909 19.9909C17.49 21.9918 14.8297 23.0937 12 23.0937C10.0739 23.0937 8.22648 22.5827 6.61187 21.6256C6.41476 22.0688 6.09713 22.447 5.70024 22.7176C7.5751 23.8784 9.73965 24.5 12 24.5C15.2053 24.5 18.2188 23.2517 20.4853 20.9853C22.7518 18.7187 24 15.7053 24 12.5C24 10.2396 23.3785 8.0751 22.2177 6.2002Z" fill="#16C2D5"/>
<path d="M18.8956 4.74594C18.8956 5.39773 19.4259 5.92803 20.0777 5.92803C20.7296 5.92803 21.2599 5.39773 21.2599 4.74594C21.2599 4.09414 20.7296 3.56384 20.0777 3.56384C19.4259 3.56384 18.8956 4.09414 18.8956 4.74594Z" fill="#16C2D5"/>
<path d="M5.42808 20.5777C5.42808 19.9259 4.89778 19.3956 4.24594 19.3956C3.59409 19.3956 3.06384 19.9259 3.06384 20.5777C3.06384 21.2295 3.59414 21.7598 4.24594 21.7598C4.89773 21.7598 5.42808 21.2295 5.42808 20.5777Z" fill="#16C2D5"/>
<path d="M8.33048 18.7294C7.85854 17.5974 7.52915 16.2287 7.36335 14.7467C6.78187 14.4134 6.34171 13.8613 6.15562 13.2031H3.28087C3.43593 15.1431 4.22681 16.9064 5.44434 18.2846C5.76412 18.6466 6.1132 18.982 6.48806 19.287C7.43226 20.0553 8.53907 20.6307 9.74826 20.9531C9.25363 20.4695 8.76065 19.7611 8.33048 18.7294Z" fill="#16C2D5"/>
<path d="M15.6695 6.27067C16.3017 7.78689 16.6783 9.72766 16.7481 11.7969H20.7192C20.5742 9.98261 19.8731 8.32286 18.787 6.98809C18.482 6.61323 18.1466 6.26411 17.7846 5.94433C16.7836 5.05998 15.5794 4.40088 14.2518 4.04688C14.7463 4.53053 15.2393 5.23891 15.6695 6.27067Z" fill="#16C2D5"/>
<path d="M6.15562 11.7969C6.34171 11.1387 6.78187 10.5866 7.36335 10.2533C7.52915 8.77127 7.85854 7.40256 8.33048 6.27063C8.76065 5.23886 9.25363 4.53048 9.74826 4.04688C6.23123 4.98456 3.57918 8.06392 3.28087 11.7969H6.15562Z" fill="#16C2D5"/>
<path d="M16.7481 13.2031C16.6783 15.2724 16.3017 17.2131 15.6695 18.7294C15.2393 19.7611 14.7464 20.4695 14.2517 20.9531C17.7688 20.0154 20.4208 16.9361 20.7191 13.2031H16.7481Z" fill="#16C2D5"/>
<path d="M12 4.45569C10.5242 4.45569 9.27102 6.74197 8.82257 9.91836C9.92802 9.99327 10.8448 10.7649 11.1366 11.7969H15.341C15.1925 7.6835 13.7535 4.45569 12 4.45569Z" fill="#16C2D5"/>
<path d="M12 20.5444C13.7535 20.5444 15.1925 17.3165 15.341 13.2031H11.1366C10.8448 14.2351 9.92802 15.0068 8.82257 15.0817C9.27102 18.2581 10.5242 20.5444 12 20.5444Z" fill="#16C2D5"/>
<path d="M8.6461 11.3179C7.9943 11.3179 7.464 11.8482 7.464 12.5C7.464 13.1518 7.99425 13.6821 8.6461 13.6821C9.29794 13.6821 9.82824 13.1518 9.82824 12.5C9.82824 11.8482 9.2979 11.3179 8.6461 11.3179Z" fill="#16C2D5"/>
</svg>
