<svg width="24" height="25" viewBox="0 0 24 25" fill="none" xmlns="http://www.w3.org/2000/svg">
<g clip-path="url(#clip0_545_945)">
<path d="M21.3183 6.125H17.6822C17.1328 6.125 16.6875 5.67969 16.6875 5.13078V1.49422C16.6875 0.945312 17.1328 0.5 17.6817 0.5C17.9456 0.5 18.1983 0.604531 18.3848 0.791094L22.0209 4.42719C22.2075 4.61375 22.312 4.86641 22.312 5.13031C22.3125 5.67969 21.8672 6.125 21.3183 6.125ZM22.3125 10.8125V21.6875C22.3125 23.2409 21.0534 24.5 19.5 24.5H4.5C2.94656 24.5 1.6875 23.2409 1.6875 21.6875V3.3125C1.6875 1.75906 2.94656 0.5 4.5 0.5H12C13.5534 0.5 14.8125 1.75906 14.8125 3.3125V5.1875C14.8125 6.74094 16.0716 8 17.625 8H19.5C21.0534 8 22.3125 9.25906 22.3125 10.8125ZM4.5 7.0625C4.5 7.83922 5.12953 8.46875 5.90625 8.46875H6.84375V9.40625C6.84375 10.183 7.47328 10.8125 8.25 10.8125C9.02672 10.8125 9.65625 10.183 9.65625 9.40625V8.46875H10.5938C11.3705 8.46875 12 7.83922 12 7.0625C12 6.28578 11.3705 5.65625 10.5938 5.65625H9.65625V4.71875C9.65625 3.94203 9.02672 3.3125 8.25 3.3125C7.47328 3.3125 6.84375 3.94203 6.84375 4.71875V5.65625H5.90625C5.12953 5.65625 4.5 6.28578 4.5 7.0625ZM15.75 19.25C15.75 18.732 15.3305 18.3125 14.8125 18.3125H5.4375C4.91953 18.3125 4.5 18.732 4.5 19.25C4.5 19.768 4.91953 20.1875 5.4375 20.1875H14.8125C15.3305 20.1875 15.75 19.768 15.75 19.25ZM19.5 14.5625C19.5 14.0445 19.0805 13.625 18.5625 13.625H5.4375C4.91953 13.625 4.5 14.0445 4.5 14.5625C4.5 15.0805 4.91953 15.5 5.4375 15.5H18.5625C19.0805 15.5 19.5 15.0805 19.5 14.5625Z" fill="#16C2D5"/>
</g>
<defs>
<clipPath id="clip0_545_945">
<rect width="24" height="24" fill="white" transform="translate(0 0.5)"/>
</clipPath>
</defs>
</svg>
