<svg width="24" height="25" viewBox="0 0 24 25" fill="none" xmlns="http://www.w3.org/2000/svg">
<path d="M23.9244 11.1677C23.8866 10.8304 23.4931 10.5766 23.1529 10.5766C22.0533 10.5766 21.0774 9.93124 20.6682 8.93235C20.2504 7.90949 20.52 6.71682 21.3392 5.96527C21.5972 5.72935 21.6287 5.33432 21.4124 5.0601C20.8494 4.34539 20.2099 3.69971 19.5113 3.14017C19.2381 2.92096 18.8365 2.95147 18.5993 3.21396C17.8841 4.0061 16.5993 4.30045 15.6064 3.88622C14.5736 3.45164 13.9216 2.4047 13.9857 1.28095C14.0068 0.927749 13.7485 0.620838 13.3966 0.57984C12.5001 0.476049 11.5958 0.473039 10.6967 0.572782C10.3493 0.611185 10.0912 0.910831 10.1027 1.25957C10.1417 2.37232 9.48239 3.40079 8.45952 3.81979C7.47859 4.22053 6.20268 3.92836 5.48891 3.14318C5.25299 2.88453 4.85848 2.85277 4.58333 3.06731C3.86426 3.63162 3.21027 4.27772 2.64212 4.98662C2.42073 5.26218 2.45343 5.66157 2.71363 5.89832C3.54905 6.65486 3.81839 7.8578 3.38464 8.8926C2.97051 9.87914 1.9462 10.5147 0.773665 10.5147C0.393166 10.5024 0.122374 10.758 0.0803383 11.1041C-0.0251137 12.0053 -0.0262554 12.9241 0.0752526 13.8327C0.113136 14.1714 0.518234 14.423 0.862199 14.423C1.90738 14.3964 2.91021 15.0431 3.3315 16.0672C3.75071 17.09 3.48086 18.2822 2.66028 19.0348C2.40361 19.2707 2.37081 19.6648 2.58752 19.9387C3.14478 20.6489 3.78497 21.295 4.48556 21.8594C4.7606 22.0809 5.16062 22.0498 5.39903 21.787C6.11705 20.993 7.40168 20.6992 8.3905 21.1142C9.42634 21.5477 10.0779 22.5945 10.0143 23.7186C9.99346 24.0718 10.2523 24.3796 10.603 24.4197C11.0618 24.4734 11.5229 24.4999 11.9855 24.4999C12.4246 24.4999 12.8637 24.4759 13.3028 24.4271C13.6508 24.3887 13.9084 24.0887 13.8966 23.7399C13.8565 22.6276 14.5172 21.5991 15.5388 21.1809C16.5263 20.7775 17.7965 21.0727 18.5107 21.8568C18.7478 22.1149 19.14 22.1462 19.4163 21.9325C20.1341 21.3697 20.7868 20.7239 21.3575 20.0131C21.5791 19.7381 21.5476 19.3382 21.286 19.101C20.4508 18.345 20.18 17.1415 20.6137 16.1078C21.0214 15.1345 22.0076 14.481 23.0684 14.481L23.2168 14.485C23.5612 14.5129 23.8776 14.2477 23.9193 13.8964C24.0252 12.9943 24.0264 12.0766 23.9244 11.1677ZM12 19.4181C8.17908 19.4181 5.08184 16.3208 5.08184 12.5001C5.08184 8.67931 8.17918 5.58207 12 5.58207C15.8207 5.58207 18.9181 8.67931 18.9181 12.5001C18.9181 13.797 18.5605 15.01 17.9395 16.0473L14.9103 13.0179C15.1296 12.5008 15.2454 11.9402 15.2453 11.3617C15.2453 10.2288 14.8041 9.16381 14.0029 8.36285C13.202 7.56189 12.137 7.12078 11.0043 7.12078C10.6263 7.12078 10.25 7.17101 9.88603 7.27013C9.72661 7.31362 9.59625 7.44502 9.55379 7.60475C9.51041 7.76812 9.5593 7.93554 9.68696 8.06331C9.68696 8.06331 11.1825 9.57036 11.6829 10.0706C11.7353 10.123 11.7352 10.2481 11.7278 10.2932L11.7231 10.3261C11.6727 10.8762 11.5754 11.5365 11.4952 11.7902C11.4844 11.8009 11.4742 11.81 11.4632 11.821C11.4517 11.8325 11.4411 11.8436 11.43 11.855C11.1729 11.9375 10.5024 12.0359 9.94364 12.0859L9.94374 12.0829L9.91862 12.0893C9.91416 12.0898 9.90586 12.0904 9.89485 12.0904C9.83445 12.0904 9.7456 12.0735 9.66485 11.9928C9.14403 11.472 7.70714 10.0454 7.70714 10.0454C7.57823 9.91692 7.446 9.88993 7.35788 9.88993C7.15248 9.88993 6.96856 10.0384 6.91064 10.2512C6.51509 11.715 6.93441 13.2895 8.00523 14.3604C8.80639 15.1615 9.8715 15.6026 11.0044 15.6026C11.5829 15.6026 12.1435 15.4869 12.6605 15.2676L15.7226 18.3297C14.6476 19.0177 13.3709 19.4181 12 19.4181Z" fill="#16C2D5"/>
</svg>
