<svg width="24" height="25" viewBox="0 0 24 25" fill="none" xmlns="http://www.w3.org/2000/svg">
<g clip-path="url(#clip0_542_911)">
<path d="M9.24878 15.0088C9.05202 14.9296 8.8264 14.9758 8.67791 15.1264L7.9213 15.8908L6.1195 14.109C5.72966 13.7244 5.00506 13.8241 4.61993 14.2139C4.23428 14.6043 4.14193 15.33 4.53178 15.7151L6.3341 17.4969L5.57855 18.2614C5.42901 18.4125 5.38546 18.6381 5.46783 18.8339C5.55021 19.0296 5.74277 19.156 5.95475 19.155L9.02368 19.1377C9.17637 19.1371 9.32171 19.0757 9.42875 18.9677C9.53578 18.859 9.59507 18.7137 9.59402 18.561L9.57618 15.4916C9.57461 15.2796 9.44554 15.0891 9.24878 15.0088Z" fill="#16C2D5"/>
<path d="M11.4126 13.004C11.2012 12.4331 11.0852 11.8166 11.0852 11.1733C11.0852 11.0762 11.0878 10.9786 11.0931 10.8826C10.2562 10.8831 9.31331 10.8847 8.39352 10.8858L4.04119 10.8894C2.98288 10.8894 2.12134 10.0284 2.12134 8.96959C2.12134 7.91023 2.98288 7.04921 4.04119 7.04921C4.10363 7.04921 4.16449 7.05341 4.22588 7.05918C4.73956 7.10693 5.21335 6.77165 5.34453 6.27109C5.684 4.97353 6.85722 4.06686 8.19676 4.06686C9.40303 4.06686 10.476 4.78936 10.9315 5.908C11.0506 6.20078 11.2935 6.42483 11.5952 6.52032C11.8969 6.61529 12.2248 6.57069 12.4903 6.39964C12.8744 6.15094 13.3188 6.01976 13.7737 6.01976C14.077 6.01976 14.3666 6.07748 14.6332 6.18137C15.1783 5.99143 15.7623 5.88754 16.3715 5.88754C16.7933 5.88754 17.2036 5.93739 17.5977 6.03131C16.8044 4.7521 15.3872 3.89843 13.7737 3.89843C13.2926 3.89843 12.8172 3.97503 12.3654 4.12562C11.4315 2.77454 9.891 1.94604 8.19728 1.94604C6.17249 1.94604 4.36912 3.14969 3.56529 4.95621C1.56044 5.19285 0 6.90282 0 8.97064C0 11.1995 1.81334 13.0124 4.04119 13.0124L8.39614 13.0076C9.43346 13.0066 10.5007 13.005 11.4126 13.004Z" fill="#16C2D5"/>
<path d="M15.6805 15.6537C12.8193 16.0357 10.8092 18.6644 11.1912 21.5255L11.2143 21.7008C11.3659 22.8352 12.3334 23.682 13.4778 23.682H19.2636C20.4085 23.682 21.3765 22.8346 21.5282 21.7008L21.5513 21.5255C21.6079 21.0853 21.6121 20.6047 21.5513 20.143C21.1714 17.2823 18.5427 15.2728 15.6805 15.6537Z" fill="#16C2D5"/>
<path d="M16.371 14.8677C18.4113 14.8677 20.0653 13.2137 20.0653 11.1733C20.0653 9.13297 18.4113 7.47894 16.371 7.47894C14.3306 7.47894 12.6766 9.13297 12.6766 11.1733C12.6766 13.2137 14.3306 14.8677 16.371 14.8677Z" fill="#16C2D5"/>
<path d="M23.7313 4.8345L22.0408 3.14341L22.8404 2.34431C22.99 2.19424 22.9695 1.90304 22.8887 1.7068C22.8079 1.51057 22.5833 1.35001 22.3713 1.35001L19.2694 1.31696C19.1177 1.31696 18.9713 1.3773 18.8638 1.48433C18.7562 1.59242 18.6959 1.73828 18.6959 1.89045V4.95938C18.6959 5.17188 18.89 5.4295 19.0862 5.50978C19.2819 5.59111 19.5742 5.61157 19.7237 5.46151L20.5417 4.64404L22.2328 6.33512C22.62 6.7234 23.2964 6.67512 23.6852 6.28738C24.0713 5.89858 24.1196 5.22225 23.7313 4.8345Z" fill="#16C2D5"/>
</g>
<defs>
<clipPath id="clip0_542_911">
<rect width="23.9995" height="24" fill="white" transform="translate(0 0.5)"/>
</clipPath>
</defs>
</svg>
