<?xml version="1.0" encoding="UTF-8"?>
<svg id="Layer_1" data-name="Layer 1" xmlns="http://www.w3.org/2000/svg" viewBox="0 0 831.33 210.65">
  <defs>
    <style>
      .cls-1 {
        fill: #16c2d5;
      }

      .cls-1, .cls-2 {
        stroke-width: 0px;
      }

      .cls-2 {
        fill: #fff;
      }
    </style>
  </defs>
  <path class="cls-1" d="M104.6,38.4c-2.3-8.41-10.02-14.59-19.16-14.59-5.48,0-10.46,2.23-14.05,5.82-3.6,3.59-5.83,8.57-5.83,14.05v14.43h-14.42c-10.97,0-19.88,8.89-19.88,19.86,0,5.49,2.23,10.46,5.83,14.06,3.59,3.59,8.56,5.82,14.05,5.82h54.17v-54.17c0-1.83-.25-3.59-.72-5.27Z"/>
  <path class="cls-2" d="M109.86,131.28c-2.94-2.54-4.4-7.15-4.4-13.81v-9.78h-39.66v9.19c0,13.12,2.15,23.45,6.46,30.99,4.3,7.54,10.33,12.93,18.07,16.16,7.73,3.23,16.79,4.84,27.17,4.84h26.73v-33.78h-19.39c-7.05,0-12.04-1.27-14.98-3.82Z"/>
  <rect class="cls-2" x="115.14" y="58.16" width="29.52" height="39.69"/>
  <path class="cls-2" d="M228.92,85.18c-4.82-3.02-10.81-4.53-17.97-4.53-6.16,0-11.53,1.29-16.12,3.86-4.59,2.58-8.23,5.99-10.92,10.25v-36.58h-25.19v111.25h25.19v-46.95c0-4.25.78-7.92,2.35-11,1.57-3.08,3.75-5.46,6.55-7.14,2.8-1.68,5.88-2.52,9.24-2.52,5.71,0,9.88,1.74,12.51,5.21,2.63,3.47,3.95,8.34,3.95,14.61v47.79h25.02v-50.14c0-8.17-1.23-15.14-3.69-20.91-2.46-5.77-6.1-10.16-10.92-13.18Z"/>
  <path class="cls-2" d="M318.27,86.19c-6.38-3.69-13.83-5.54-22.34-5.54s-16.4,1.96-23.01,5.88c-6.61,3.92-11.76,9.29-15.45,16.12-3.69,6.83-5.54,14.61-5.54,23.35s1.87,16.04,5.63,22.59c3.75,6.55,8.93,11.65,15.54,15.28,6.61,3.64,14.28,5.46,23.01,5.46,6.6,0,12.65-1.26,18.14-3.78,5.48-2.52,10.13-5.93,13.94-10.25,3.8-4.31,6.49-9.15,8.06-14.53h-25.7c-1.34,2.35-3.22,4.28-5.63,5.79-2.41,1.51-5.46,2.27-9.15,2.27-3.92,0-7.31-.84-10.16-2.52-2.86-1.68-5.04-4.03-6.55-7.05-1.2-2.4-1.92-5.09-2.16-8.06h61.37c.22-1.45.36-2.88.42-4.28.06-1.4.08-2.66.08-3.78,0-8.28-1.82-15.59-5.46-21.92-3.64-6.32-8.65-11.34-15.03-15.03ZM277.48,116.59c.43-2.06,1.07-3.91,1.91-5.54,1.73-3.36,4.06-5.88,6.97-7.56,2.91-1.68,6.16-2.52,9.74-2.52,4.7,0,8.65,1.43,11.84,4.28,3.19,2.85,4.9,6.63,5.12,11.34h-35.59Z"/>
  <path class="cls-2" d="M379.74,88.87c-3.02,2.58-5.66,5.66-7.89,9.24l-2.35-15.45h-22.34v86.76h25.19v-39.9c0-4.25.53-7.81,1.59-10.67,1.06-2.86,2.57-5.12,4.54-6.8,1.96-1.68,4.31-2.88,7.05-3.61,2.74-.73,5.79-1.09,9.15-1.09h8.4v-26.7c-4.59,0-8.88.73-12.85,2.18-3.98,1.46-7.47,3.47-10.5,6.05Z"/>
  <path class="cls-2" d="M468.25,84.59c-5.94-2.63-12.93-3.95-20.99-3.95-7.39,0-13.94,1.29-19.65,3.86-5.71,2.58-10.27,6.1-13.69,10.58-3.42,4.48-5.4,9.74-5.96,15.79h24.18c.67-3.36,2.35-5.82,5.04-7.39,2.69-1.57,5.99-2.35,9.91-2.35,3.69,0,6.6.62,8.73,1.85,2.12,1.23,3.67,3.08,4.62,5.54.95,2.46,1.43,5.6,1.43,9.41h-20.49c-8.17,0-14.95,1.15-20.32,3.44-5.37,2.3-9.32,5.37-11.84,9.24-2.52,3.86-3.78,8.31-3.78,13.35,0,4.7,1.09,8.99,3.28,12.85,2.18,3.86,5.6,6.92,10.24,9.15,4.65,2.24,10.5,3.36,17.55,3.36,3.25,0,6.21-.34,8.9-1.01s5.15-1.65,7.39-2.94c2.24-1.29,4.2-2.8,5.88-4.53,1.68-1.73,3.13-3.67,4.37-5.79l3.02,14.37h20.99v-54.51c0-7.5-1.65-13.77-4.96-18.81-3.3-5.04-7.92-8.87-13.86-11.5ZM460.69,132.88c-.45,2.46-1.15,4.73-2.1,6.8-.95,2.07-2.16,3.89-3.61,5.46-1.46,1.57-3.19,2.8-5.21,3.69-2.01.9-4.37,1.34-7.05,1.34-2.01,0-3.84-.31-5.46-.92-1.62-.61-2.91-1.57-3.86-2.85-.95-1.29-1.43-2.88-1.43-4.79,0-1.79.45-3.36,1.34-4.7.9-1.34,2.27-2.38,4.12-3.11,1.85-.73,4.17-1.09,6.97-1.09h16.29v.17Z"/>
  <path class="cls-2" d="M567.84,85.18c-4.82-3.02-10.75-4.53-17.8-4.53s-12.43,1.43-17.13,4.28c-4.7,2.86-8.34,6.63-10.92,11.34l-2.02-13.6h-22v86.76h25.19v-47.29c0-4.25.78-7.89,2.35-10.92,1.57-3.02,3.72-5.35,6.47-6.97,2.74-1.62,5.79-2.44,9.15-2.44,5.71,0,9.88,1.71,12.51,5.12,2.63,3.42,3.95,8.2,3.95,14.36v48.13h25.02v-50.48c0-8.17-1.26-15.09-3.78-20.74-2.52-5.65-6.19-9.99-11-13.02Z"/>
  <path class="cls-2" d="M617.64,49.41c-2.86-2.57-6.58-3.86-11.17-3.86s-8.12,1.29-10.92,3.86c-2.8,2.58-4.2,5.88-4.2,9.91s1.4,7.17,4.2,9.74c2.8,2.58,6.44,3.86,10.92,3.86s8.31-1.29,11.17-3.86c2.85-2.57,4.28-5.82,4.28-9.74s-1.43-7.33-4.28-9.91Z"/>
  <rect class="cls-2" x="593.87" y="82.66" width="25.19" height="86.76"/>
  <polygon class="cls-2" points="695.99 102.81 695.99 82.66 626.12 82.66 626.12 103.49 667.1 103.49 625.61 147.15 625.61 169.42 696.83 169.42 696.83 146.48 654.17 146.48 695.99 102.81"/>
  <path class="cls-2" d="M783.91,101.22c-3.64-6.32-8.65-11.34-15.03-15.03s-13.83-5.54-22.34-5.54-16.4,1.96-23.01,5.88c-6.61,3.92-11.76,9.29-15.45,16.12-3.69,6.83-5.54,14.61-5.54,23.35s1.87,16.04,5.63,22.59c3.75,6.55,8.93,11.65,15.54,15.28,6.61,3.64,14.28,5.46,23.01,5.46,6.6,0,12.65-1.26,18.14-3.78,5.48-2.52,10.13-5.93,13.94-10.25,3.8-4.31,6.49-9.15,8.06-14.53h-25.7c-1.34,2.35-3.22,4.28-5.63,5.79-2.41,1.51-5.46,2.27-9.15,2.27-3.92,0-7.31-.84-10.16-2.52-2.86-1.68-5.04-4.03-6.55-7.05-1.2-2.4-1.92-5.09-2.16-8.06h61.37c.22-1.45.36-2.88.42-4.28.06-1.4.08-2.66.08-3.78,0-8.28-1.82-15.59-5.46-21.92ZM728.08,116.59c.43-2.06,1.07-3.91,1.91-5.54,1.73-3.36,4.06-5.88,6.97-7.56,2.91-1.68,6.16-2.52,9.74-2.52,4.7,0,8.65,1.43,11.84,4.28,3.19,2.85,4.9,6.63,5.12,11.34h-35.59Z"/>
  <path class="cls-2" d="M762.7,52.08v3.3h-6.38v16.64h-3.96v-16.64h-6.38v-3.3h16.71ZM784.26,72.02l-.73-11.73c-.07-1.54-.07-3.45-.15-5.57h-.22c-.51,1.76-1.1,4.1-1.69,5.94l-3.59,11.07h-4.11l-3.59-11.36c-.37-1.54-.95-3.88-1.39-5.64h-.22c0,1.83-.07,3.74-.15,5.57l-.73,11.73h-3.81l1.47-19.94h5.94l3.44,9.75c.44,1.54.81,3.01,1.32,5.06h.07c.51-1.83.95-3.52,1.39-4.98l3.44-9.82h5.72l1.54,19.94h-3.96Z"/>
</svg>